<svg width="400" height="196" viewBox="0 0 400 196" fill="none" xmlns="http://www.w3.org/2000/svg">
<path d="M346.546 0.201614C346.476 0.317993 346.289 1.85428 346.173 3.62334C346.033 5.41568 345.823 7.53391 345.706 8.37187C345.589 9.20985 345.403 10.7694 345.263 11.8634C344.89 15.1222 343.817 22.1752 343.373 24.2469C342.814 26.9004 342.604 27.9246 342.184 29.7868C341.74 31.7421 341.624 32.1145 341.041 34.2094C340.644 35.6061 339.431 39.3304 339.174 39.9123C339.081 40.1684 338.801 40.7969 338.591 41.309C336.912 45.2428 334.952 48.1059 333.063 49.4327C331.593 50.4103 328.491 51.7604 327.044 52.0397C326.461 52.1328 325.948 52.2259 325.878 52.2492C325.785 52.2725 324.082 52.6682 323.779 52.7147C323.709 52.738 323.359 52.8078 322.962 52.901C320.093 53.5527 313.748 54.414 308.15 54.9493C298.026 55.8804 290.421 56.8813 283.423 58.1849C282.117 58.4409 280.624 58.7202 278.478 59.1159C275.585 59.628 273.766 60.0005 271.41 60.5126C270.826 60.629 269.917 60.8385 269.38 60.9548C268.074 61.2574 266.721 61.5833 265.694 61.8626C265.251 62.0023 264.248 62.2816 263.478 62.4911C259.536 63.5619 254.031 65.2844 251.488 66.2387C248.642 67.3328 248.432 67.4259 246.753 68.1707C246.146 68.4501 245.587 68.6596 245.517 68.6596C245.4 68.6596 243.837 69.3579 241.271 70.545C240.455 70.9174 239.148 71.5226 238.355 71.8951C233.13 74.2926 232.08 74.6418 229.071 74.8047C227.975 74.8513 225.945 74.8047 224.522 74.6883C222.096 74.5021 220.65 74.3624 215.495 73.7572C214.305 73.6409 212.486 73.4314 211.459 73.315C210.433 73.1986 207.284 72.9891 204.461 72.8262C197.65 72.477 189.159 72.8262 181.134 73.7572C178.685 74.0598 176.515 74.3392 173.903 74.7116C170.707 75.1539 167.301 75.2702 165.878 74.9677C164.012 74.5719 163.709 74.4323 158.39 71.8718C153.585 69.5441 151.905 68.7527 151.042 68.4268C150.786 68.3337 150.203 68.0776 149.759 67.8914C149.316 67.7052 148.22 67.2629 147.31 66.9138C146.424 66.5646 145.467 66.1922 145.211 66.0991C144.161 65.6568 139.775 64.1671 138.679 63.8877C138.049 63.7248 136.999 63.4222 136.346 63.2127C134.573 62.6773 131.378 61.8161 129.698 61.4204C129.115 61.304 128.228 61.0712 127.715 60.9548C126.502 60.6522 124.939 60.3031 123.633 60.0703C123.05 59.9539 121.954 59.7444 121.184 59.5815C116.938 58.7202 110.173 57.7426 105.321 57.2538C89.1558 55.6477 64.6158 56.4856 49.22 59.1159C43.3649 60.1169 41.0555 60.5591 37.0433 61.4204C36.4834 61.5368 35.457 61.7463 34.7572 61.8859C34.0574 62.0256 33.0077 62.2351 32.4245 62.3747C31.8413 62.5144 30.9083 62.7006 30.3251 62.817C29.7419 62.9334 28.2257 63.236 26.9427 63.492C25.6597 63.7481 24.2367 64.0274 23.7935 64.0972C23.3503 64.1671 22.6272 64.33 22.2073 64.4464C21.7874 64.5628 21.3909 64.6792 21.3442 64.6792C21.2742 64.6792 20.9243 64.7257 20.5744 64.7956C19.4547 65.0516 18.8016 65.1913 17.6119 65.424C16.9821 65.5404 16.0023 65.7499 15.4658 65.8663C13.3197 66.3551 12.2 66.5879 11.2436 66.7043C10.7071 66.7974 10.1939 66.9603 10.1239 67.0534C10.0539 67.1698 9.72736 67.2629 9.40078 67.2629C9.05087 67.2629 8.4677 67.356 8.07114 67.4724C7.67458 67.5888 6.88146 67.8216 6.29829 67.9612C5.71511 68.1242 5.06196 68.3337 4.85202 68.4501C4.61874 68.5664 4.29217 68.6596 4.12888 68.6596C3.94226 68.6596 3.17247 68.9854 2.37935 69.3811C1.14302 70.0329 0.909754 70.2657 0.489866 71.2899C0.0233273 72.3839 0 72.8727 0 79.3437C0.023327 89.1434 0.186617 89.6089 4.17553 91.7737C7.27802 93.4497 10.6138 96.4291 11.8268 98.5706C12.41 99.6181 13.7163 102.295 13.9962 102.993C14.0895 103.249 14.2761 103.715 14.4161 104.041C14.556 104.367 14.7193 104.879 14.8126 105.205C14.8826 105.53 15.0692 106.159 15.1859 106.601C15.4191 107.393 15.6291 108.184 16.119 110.209C16.3289 111.187 16.6555 112.677 17.052 114.562C18.2184 120.474 18.1484 120.148 18.8949 123.477C19.618 126.713 19.5247 126.363 20.2712 129.413C21.1343 132.904 23.6769 141.284 24.47 143.263C24.5867 143.519 24.7733 144.008 24.9366 144.357C25.0765 144.729 25.2865 145.241 25.4031 145.521C26.0563 147.173 27.4792 150.339 27.9691 151.293C33.8941 162.699 41.6853 172.173 50.9462 179.365C52.0892 180.25 53.2789 181.134 53.5588 181.321C53.8387 181.507 54.6318 182.066 55.3083 182.531C60.1836 185.836 67.9049 189.747 72.547 191.237C73.1301 191.423 73.7833 191.679 73.9932 191.795C74.2265 191.935 74.6231 192.028 74.8563 192.028C75.1129 192.028 75.3928 192.121 75.4628 192.261C75.5328 192.377 75.906 192.494 76.2793 192.494C76.6525 192.494 77.0024 192.587 77.0724 192.703C77.1424 192.82 77.5389 192.959 77.9588 193.029C78.3787 193.099 79.1951 193.285 79.7783 193.425C83.3474 194.309 89.2258 195.194 94.0311 195.543C97.2036 195.776 98.8598 195.776 102.802 195.543C105.461 195.38 107.864 195.194 108.121 195.147C108.377 195.101 109.59 194.891 110.803 194.728C114.209 194.216 115.212 194.007 117.451 193.448C117.965 193.308 118.711 193.145 119.084 193.076C119.481 192.983 119.994 192.843 120.251 192.726C120.507 192.633 121.51 192.307 122.467 192.005C123.423 191.726 124.31 191.4 124.45 191.283C124.566 191.19 124.846 191.097 125.079 191.097C125.313 191.097 125.686 191.004 125.919 190.888C126.712 190.469 128.532 189.7 128.742 189.7C128.858 189.7 129.348 189.491 129.861 189.258C130.351 189.002 131.494 188.443 132.381 188.025C136.183 186.279 141.478 183.066 144.814 180.529C145.514 180.017 146.377 179.365 146.703 179.109C150.459 176.316 156.991 169.775 160.14 165.632C160.536 165.12 161.236 164.212 161.726 163.584C162.916 162.024 166.578 156.577 167.395 155.134C167.534 154.878 167.884 154.249 168.188 153.737C170.17 150.339 172.946 144.45 174.463 140.469C174.766 139.701 175.092 138.863 175.186 138.607C175.302 138.351 175.512 137.723 175.676 137.211C175.839 136.699 176.072 136.186 176.165 136.047C176.259 135.93 176.352 135.604 176.352 135.325C176.352 135.023 176.445 134.743 176.562 134.673C176.679 134.604 176.819 134.254 176.889 133.905C176.959 133.533 177.122 132.881 177.262 132.439C177.518 131.554 177.798 130.53 178.218 129.064C178.358 128.552 178.591 127.69 178.708 127.132C178.825 126.596 179.035 125.665 179.175 125.037C179.874 121.871 180.271 118.961 180.528 115.33C180.831 111.233 180.668 109.86 179.688 108.114C177.798 104.716 177.495 103.785 177.355 101.015C177.145 97.1507 178.568 95.0092 182.184 93.6824C182.767 93.4729 183.443 93.1936 183.7 93.1005C184.167 92.891 184.423 92.8445 187.199 92.3789C189.322 92.0065 205.674 91.8435 208.077 92.1461C213.465 92.8677 216.171 93.7755 218.014 95.4748C220.673 97.9421 220.627 102.481 217.874 107.113C216.055 110.163 215.868 112.723 216.964 119.869C217.944 126.387 220.09 134.091 222.773 140.819C224.312 144.659 226.505 149.338 228.161 152.224C228.698 153.179 229.281 154.18 229.421 154.436C230.471 156.298 233.993 161.582 235.486 163.537C239.265 168.472 244.77 174.431 248.036 177.108C252.818 181.018 255.594 182.973 259.746 185.417C262.569 187.047 266.651 189.095 268.844 189.933C269.357 190.119 270.29 190.492 271.13 190.864C271.41 190.981 272.693 191.4 273.976 191.819C275.259 192.214 276.518 192.633 276.775 192.75C277.031 192.843 277.568 192.983 277.941 193.076C278.338 193.145 279.061 193.308 279.574 193.448C284.496 194.682 293.08 195.729 298.352 195.729C300.755 195.753 307.66 195.194 309.899 194.798C310.669 194.682 311.882 194.472 312.582 194.356C314.308 194.077 315.917 193.704 318.997 192.936C319.51 192.796 320.21 192.633 320.583 192.564C320.933 192.494 321.283 192.354 321.353 192.238C321.423 192.121 321.726 192.028 322.029 192.028C322.332 192.028 322.659 191.935 322.729 191.795C322.799 191.679 323.126 191.563 323.429 191.563C323.732 191.563 324.059 191.446 324.129 191.33C324.199 191.19 324.478 191.097 324.735 191.097C324.968 191.097 325.365 191.004 325.598 190.888C326.018 190.678 327.044 190.236 327.931 189.91C332.946 187.978 341.041 183.439 345.1 180.273C351.141 175.548 356.413 170.218 360.752 164.445C362.128 162.606 365.067 158.323 365.067 158.137C365.067 158.09 365.371 157.555 365.744 156.95C367.773 153.668 372.765 143.658 372.765 142.913C372.765 142.774 372.859 142.495 372.975 142.262C373.279 141.703 374.048 139.585 374.655 137.676C374.935 136.768 375.238 135.837 375.331 135.581C375.448 135.325 375.588 134.86 375.681 134.534C375.845 133.929 376.124 132.881 376.521 131.508C376.801 130.553 377.128 129.227 377.431 127.9C377.547 127.388 377.757 126.503 377.897 125.921C378.037 125.339 378.247 124.408 378.364 123.826C378.597 122.662 378.994 120.777 379.32 119.171C379.693 117.425 379.973 116.075 380.113 115.214C381.886 104.995 384.009 99.4319 387.555 95.6843C388.534 94.6368 391.894 92.3091 393.76 91.3547C394.973 90.7495 396.722 88.9572 396.909 88.1658C396.955 87.8632 397.119 87.1648 397.259 86.5829C397.375 86.001 397.469 82.4862 397.469 78.7851C397.469 72.2908 397.445 71.9882 396.955 71.0105C396.582 70.2424 396.139 69.8234 395.206 69.3346C394.529 68.9622 393.76 68.6596 393.526 68.6596C393.293 68.6596 393.013 68.5432 392.943 68.4268C392.873 68.2871 392.453 68.194 392.033 68.194C391.637 68.194 391.194 68.1009 391.077 67.9845C390.937 67.8681 390.424 67.7285 389.911 67.6586C389.398 67.5655 388.394 67.4026 387.695 67.2629C385.339 66.8207 383.402 66.5646 380.347 66.3318C376.264 66.006 374.445 66.2155 372.229 67.2862C371.716 67.5423 371.226 67.7285 371.109 67.7285C370.129 67.7285 364.928 72.2908 363.131 74.7116C362.012 76.2013 360.169 79.7162 359.726 81.2292C359.562 81.8111 359.329 82.4862 359.236 82.7422C359.142 82.9982 358.956 83.6267 358.816 84.1388C358.023 87.1416 358.093 87.7701 359.609 90.54C360.705 92.5186 361.172 93.5195 361.592 94.8463C361.755 95.3584 361.988 95.8705 362.082 96.0101C362.175 96.1265 362.268 96.4059 362.268 96.6386C362.268 96.8714 362.362 97.2438 362.478 97.4766C362.595 97.6861 362.805 98.3379 362.968 98.9198C363.131 99.5017 363.341 100.2 363.458 100.503C363.575 100.805 363.668 101.294 363.668 101.597C363.668 101.899 363.761 102.202 363.878 102.272C363.994 102.342 364.134 102.807 364.204 103.273C364.274 103.761 364.461 104.739 364.578 105.437C365.954 112.77 365.604 122.732 363.691 130.227C363.225 132.02 362.945 133.254 362.805 133.905C362.735 134.254 362.595 134.604 362.478 134.673C362.362 134.743 362.268 135.092 362.268 135.465C362.268 135.837 362.175 136.21 362.035 136.28C361.918 136.349 361.802 136.629 361.802 136.885C361.802 137.118 361.708 137.513 361.592 137.746C361.335 138.258 361.032 138.956 360.379 140.702C359.516 142.983 357.043 148.104 355.713 150.292C350.068 159.696 343.35 166.726 334.253 172.755C333.133 173.5 332.153 174.105 332.083 174.105C332.013 174.105 331.57 174.384 331.08 174.71C330.59 175.036 328.771 175.99 327.044 176.828C323.289 178.621 322.822 178.83 320.979 179.459C320.536 179.621 319.953 179.831 319.696 179.924C318.344 180.459 313.981 181.623 311.182 182.205C306.027 183.299 295.32 183.625 289.838 182.88C286.712 182.461 286.362 182.391 282.84 181.53C268.797 178.155 255.524 169.496 246.87 158.044C246.333 157.345 245.703 156.507 245.447 156.181C243.441 153.505 238.169 143.751 238.169 142.681C238.169 142.541 238.075 142.262 237.959 142.029C237.026 140.19 235.369 134.65 234.693 131.042C234.11 127.923 233.97 126.782 233.736 123.989C233.293 118.286 233.527 110.558 234.226 107.067C234.949 103.622 236.582 98.7568 237.772 96.5921C238.005 96.1498 238.449 95.3584 238.705 94.8463C238.985 94.3342 239.265 93.8687 239.335 93.7988C239.405 93.729 239.755 93.2169 240.105 92.635C242.554 88.6779 246.87 84.1854 251.442 80.9033C254.777 78.529 259.443 76.0617 263.362 74.5952C264.691 74.1064 265.485 73.7805 265.974 73.5245C266.208 73.4081 266.558 73.315 266.744 73.315C266.931 73.315 267.281 73.2219 267.514 73.0822C267.957 72.8494 270.127 72.1278 271.759 71.7089C272.343 71.5459 273.136 71.3131 273.532 71.1968C273.929 71.0804 274.465 70.9873 274.745 70.9873C275.002 70.9873 275.282 70.8942 275.352 70.7778C275.422 70.6614 275.888 70.5217 276.355 70.4519C276.845 70.3821 277.778 70.1958 278.408 70.0795C279.481 69.87 280.577 69.6605 283.54 69.1018C284.846 68.869 287.342 68.5199 289.955 68.194C299.402 67.0767 314.145 67.0767 320.28 68.194C320.979 68.3337 322.052 68.4966 322.682 68.5664C323.289 68.6596 323.849 68.8225 323.919 68.9156C323.989 69.032 324.245 69.1251 324.502 69.1251C325.108 69.1251 328.141 70.1493 329.797 70.8942C332.596 72.1744 335.209 74.4323 337.005 77.1557C337.961 78.6222 339.874 82.393 339.874 82.8353C339.874 82.975 339.968 83.2776 340.108 83.5103C340.224 83.7198 340.551 84.6975 340.831 85.6518C341.087 86.6062 341.414 87.6537 341.507 87.9795C341.601 88.3054 341.81 89.0736 341.974 89.7253C342.114 90.3538 342.324 91.2616 342.44 91.7039C342.93 93.6359 343.513 96.5921 343.84 98.5706C343.957 99.3388 344.26 101.178 344.54 102.644C344.796 104.111 345.123 106.159 345.24 107.183C345.356 108.207 345.589 109.767 345.706 110.675C346.196 113.887 346.453 116.541 346.569 118.868C346.616 120.195 346.756 121.266 346.872 121.266C347.176 121.266 347.292 120.661 347.572 117.891C347.712 116.61 347.922 114.888 348.062 114.05C348.179 113.212 348.389 111.862 348.505 111.024C348.645 110.186 348.855 108.929 348.972 108.231C349.088 107.532 349.298 106.275 349.438 105.437C349.742 103.645 350.045 101.969 350.371 100.2C350.511 99.5017 350.698 98.3611 350.838 97.6861C351.421 94.4273 351.888 91.9832 352.238 90.4236C352.378 89.7719 352.588 88.7942 352.704 88.2123C352.821 87.6304 353.031 86.7226 353.147 86.1639C353.287 85.6286 353.497 84.7906 353.614 84.3018C353.731 83.8362 353.964 83.0215 354.104 82.5094C354.244 81.9973 354.43 81.299 354.5 80.9266C354.57 80.5774 354.71 80.2283 354.827 80.1584C354.944 80.0886 355.037 79.8093 355.037 79.5067C355.037 79.2274 355.13 78.9015 355.223 78.7851C355.317 78.6454 355.597 77.9704 355.853 77.2721C356.413 75.6194 357.906 72.6167 358.979 70.9873C361.475 67.2397 365.604 64.1904 370.549 62.4911C375.775 60.6988 382.539 59.6513 396.022 58.6038C398.098 58.4409 399.871 58.2314 399.941 58.1383C400.291 57.7892 399.032 57.4865 397.329 57.5331C396.326 57.5564 394.693 57.44 393.713 57.3003C392.71 57.1374 391.124 56.9046 390.214 56.7882C388.045 56.4856 385.852 56.1598 384.149 55.8572C383.402 55.7175 382.236 55.5313 381.583 55.4149C378.574 54.9028 376.778 54.5536 374.352 54.0183C373.792 53.8786 372.835 53.6691 372.182 53.5527C369.15 52.901 365.417 51.6207 363.131 50.4569C360.612 49.1533 358.746 47.105 357.09 43.8229C356.413 42.4263 355.643 40.8434 355.41 40.2615C355.2 39.6796 354.92 39.0045 354.804 38.7485C354.547 38.1666 353.334 34.4189 352.937 33.0456C352.797 32.4637 352.564 31.7654 352.448 31.4628C352.331 31.1602 352.238 30.6713 352.238 30.3687C352.238 30.0661 352.144 29.7635 352.028 29.6937C351.911 29.6239 351.771 29.2282 351.701 28.8092C351.631 28.3902 351.445 27.5522 351.328 26.9237C350.558 23.4787 350.325 22.3614 349.905 20.057C349.205 16.2628 348.529 12.2359 348.039 8.8374C347.922 7.99944 347.712 6.53297 347.549 5.57861C347.409 4.62427 347.292 3.18108 347.316 2.36638C347.339 1.57497 347.292 0.69043 347.222 0.457657C347.059 -0.0311578 346.756 -0.147552 346.546 0.201614ZM101.939 67.7052C106.744 68.0776 112.576 68.8458 116.402 69.5906C117.102 69.7303 118.058 69.8932 118.501 69.9631C118.944 70.0329 119.528 70.1726 119.784 70.289C120.041 70.4053 120.577 70.545 120.95 70.6148C121.347 70.6614 122.117 70.8476 122.7 70.9873C123.283 71.1269 124.1 71.3131 124.52 71.383C124.939 71.4528 125.336 71.5925 125.406 71.7089C125.476 71.8252 125.779 71.9184 126.106 71.9184C126.409 71.9184 126.852 72.0115 127.085 72.1278C127.295 72.2442 127.949 72.477 128.532 72.6399C129.115 72.8029 129.675 73.0124 129.791 73.1288C129.931 73.2219 130.211 73.315 130.445 73.315C130.678 73.315 131.051 73.4081 131.284 73.5245C131.494 73.6409 131.937 73.8271 132.264 73.9435C140.802 77.2954 146.284 80.7171 151.392 85.8613C155.125 89.6089 157.154 92.4022 159.323 96.8248C160.28 98.7801 161.749 102.807 162.169 104.623C162.729 107.02 162.869 107.788 163.126 109.511C163.476 112.048 163.476 122.662 163.102 125.572C162.659 129.18 161.843 133.556 161.213 135.698C161.096 136.14 160.886 136.885 160.77 137.327C159.813 140.819 158.204 144.729 156.151 148.686C153.002 154.692 149.783 159.161 145.024 164.003C138.702 170.474 132.871 174.454 123.866 178.481C122 179.319 117.498 180.855 115.585 181.297C114.955 181.46 114.046 181.67 113.602 181.786C106.908 183.485 94.0778 183.718 86.8931 182.229C77.1424 180.227 67.9282 176.153 59.9504 170.311C50.9928 163.723 44.228 155.856 39.0261 145.94C37.4865 143.007 35.3637 137.234 34.6173 133.952C33.1943 127.69 32.8911 125.432 32.6811 119.799C32.4712 113.608 32.7278 108.813 33.5675 103.808C34.8739 96.1033 38.3962 88.6313 43.4349 82.8586C47.2838 78.4592 53.2089 74.4323 59.1339 72.1511C59.3905 72.058 59.8571 71.8718 60.1836 71.7321C60.5102 71.5925 61.1867 71.3597 61.6999 71.1968C62.2131 71.0571 62.8429 70.8476 63.0995 70.7545C63.9393 70.4286 67.485 69.5441 70.0976 69.0087C72.477 68.4966 76.4892 68.0311 80.7114 67.7285C82.6942 67.5888 84.4437 67.4259 84.5604 67.3793C84.9802 67.1931 98.6965 67.4724 101.939 67.7052Z" fill="white"/>
</svg>
