<svg width="440" height="236" viewBox="0 0 440 236" fill="none" xmlns="http://www.w3.org/2000/svg">
<g filter="url(#filter0_d_624_11168)">
<path d="M366.546 16.2011C366.756 15.8524 367.059 15.9693 367.223 16.458C367.292 16.6915 367.339 17.5753 367.315 18.3662C367.292 19.1808 367.409 20.6237 367.549 21.5781C367.712 22.5323 367.922 23.9988 368.039 24.8369C368.529 28.2353 369.205 32.2625 369.905 36.0566C370.325 38.361 370.558 39.4788 371.328 42.9238C371.445 43.5522 371.631 44.3906 371.701 44.8095C371.771 45.2279 371.911 45.6229 372.027 45.6933C372.144 45.7631 372.237 46.0665 372.237 46.3691C372.237 46.6717 372.331 47.1604 372.447 47.4628C372.564 47.7655 372.797 48.464 372.937 49.0458C373.334 50.4193 374.547 54.1652 374.804 54.748C374.92 55.004 375.2 55.6797 375.41 56.2616C375.643 56.8438 376.413 58.4268 377.09 59.8232C378.746 63.1049 380.612 65.1535 383.131 66.4569C385.417 67.6208 389.15 68.9009 392.183 69.5526C392.836 69.669 393.792 69.8788 394.351 70.0185C396.777 70.5538 398.574 70.9029 401.583 71.4149C402.236 71.5313 403.403 71.7177 404.149 71.8573C405.852 72.1599 408.045 72.4854 410.214 72.788C411.123 72.9044 412.71 73.1368 413.713 73.2997C414.693 73.4394 416.326 73.5564 417.329 73.5331C419.032 73.4866 420.291 73.7894 419.941 74.1386C419.869 74.2318 418.097 74.4406 416.022 74.6034C402.539 75.6509 395.774 76.6988 390.549 78.4911C385.604 80.1904 381.475 83.2397 378.979 86.9872C377.906 88.6166 376.413 91.6197 375.853 93.2723C375.597 93.9705 375.317 94.6454 375.224 94.785C375.215 94.796 375.206 94.8087 375.197 94.8231C376.694 96.0024 378.058 97.2485 379.298 98.5585C379.41 98.2377 379.593 97.7032 379.726 97.2294C380.169 95.7165 382.011 92.2018 383.131 90.7118C384.927 88.291 390.13 83.7284 391.109 83.7284C391.226 83.7282 391.716 83.5418 392.228 83.286C394.444 82.2153 396.264 82.006 400.347 82.3319C403.402 82.5647 405.338 82.8204 407.694 83.2626C408.394 83.4022 409.398 83.565 409.911 83.6581C410.424 83.7279 410.937 83.8679 411.077 83.9843C411.194 84.1006 411.637 84.1942 412.033 84.1942C412.453 84.1942 412.873 84.287 412.943 84.4266C413.013 84.543 413.293 84.6591 413.526 84.6591C413.76 84.6591 414.529 84.9624 415.206 85.3348C416.139 85.8236 416.582 86.2426 416.955 87.0106C417.445 87.9882 417.469 88.2909 417.469 94.785C417.469 98.486 417.375 102.001 417.259 102.583C417.119 103.165 416.956 103.863 416.909 104.166C416.722 104.957 414.973 106.749 413.76 107.354C411.894 108.309 408.534 110.637 407.555 111.684C404.009 115.432 401.886 120.995 400.113 131.214C399.973 132.075 399.693 133.425 399.32 135.171C398.994 136.777 398.597 138.662 398.364 139.826C398.248 140.408 398.037 141.339 397.897 141.921C397.757 142.503 397.547 143.387 397.431 143.899C397.127 145.226 396.801 146.553 396.521 147.508C396.125 148.881 395.845 149.928 395.682 150.533C395.588 150.859 395.448 151.325 395.331 151.581C395.238 151.837 394.935 152.768 394.655 153.676C394.049 155.584 393.279 157.703 392.975 158.262C392.859 158.494 392.766 158.773 392.766 158.913C392.766 159.658 387.774 169.667 385.744 172.949C385.371 173.554 385.067 174.09 385.067 174.136C385.067 174.324 382.128 178.605 380.752 180.444C376.413 186.217 371.141 191.548 365.1 196.273C361.041 199.439 352.946 203.978 347.931 205.91C347.044 206.236 346.019 206.678 345.599 206.887C345.365 207.004 344.969 207.096 344.735 207.096C344.479 207.096 344.199 207.19 344.129 207.33C344.068 207.432 343.809 207.534 343.543 207.557L343.314 207.567C343.048 207.591 342.79 207.693 342.728 207.795C342.658 207.934 342.332 208.028 342.029 208.028C341.726 208.028 341.423 208.121 341.352 208.237C341.282 208.353 340.933 208.493 340.583 208.563C340.21 208.633 339.51 208.796 338.997 208.935C335.918 209.703 334.308 210.076 332.582 210.355C331.882 210.472 330.669 210.681 329.899 210.798C327.66 211.193 320.755 211.752 318.352 211.729C313.081 211.729 304.496 210.682 299.574 209.448C299.061 209.308 298.338 209.145 297.941 209.075C297.568 208.982 297.031 208.843 296.774 208.75C296.517 208.633 295.258 208.214 293.976 207.818C292.693 207.399 291.41 206.98 291.13 206.864C290.29 206.492 289.357 206.12 288.844 205.933C286.651 205.095 282.569 203.046 279.746 201.417C275.594 198.973 272.818 197.018 268.036 193.107C264.77 190.43 259.265 184.472 255.486 179.537C253.993 177.582 250.471 172.297 249.421 170.435C249.281 170.179 248.698 169.179 248.161 168.224C246.505 165.338 244.312 160.659 242.772 156.818C240.09 150.091 237.945 142.386 236.965 135.869C235.868 128.723 236.055 126.162 237.874 123.113C240.627 118.481 240.673 113.942 238.014 111.474C236.171 109.775 233.465 108.868 228.077 108.146C225.674 107.844 209.322 108.006 207.199 108.379C204.423 108.844 204.167 108.891 203.7 109.1C203.444 109.194 202.767 109.473 202.184 109.682C198.568 111.009 197.145 113.151 197.355 117.014C197.495 119.784 197.798 120.716 199.687 124.114C200.667 125.86 200.831 127.233 200.527 131.33C200.271 134.961 199.875 137.871 199.175 141.037C199.035 141.665 198.825 142.596 198.708 143.132C198.591 143.69 198.358 144.551 198.218 145.063C197.798 146.53 197.518 147.554 197.262 148.438C197.122 148.881 196.959 149.533 196.889 149.905C196.819 150.254 196.679 150.604 196.562 150.674C196.446 150.743 196.352 151.022 196.352 151.325C196.352 151.604 196.258 151.93 196.165 152.047C196.072 152.187 195.839 152.699 195.676 153.211C195.512 153.723 195.302 154.351 195.186 154.607C195.092 154.864 194.766 155.702 194.463 156.47C192.947 160.45 190.17 166.339 188.187 169.737C187.884 170.249 187.534 170.877 187.394 171.134C186.578 172.577 182.915 178.024 181.726 179.584C181.236 180.212 180.536 181.12 180.14 181.632C176.99 185.775 170.459 192.316 166.703 195.109C166.376 195.365 165.514 196.017 164.814 196.529C161.479 199.066 156.183 202.278 152.381 204.024C151.494 204.443 150.351 205.001 149.861 205.258C149.348 205.49 148.858 205.7 148.741 205.7C148.529 205.701 146.711 206.469 145.919 206.887C145.686 207.004 145.312 207.096 145.079 207.096C144.846 207.096 144.566 207.19 144.449 207.283C144.309 207.399 143.423 207.725 142.467 208.005C141.511 208.307 140.508 208.633 140.251 208.726C139.994 208.843 139.481 208.982 139.084 209.075C138.711 209.145 137.964 209.308 137.451 209.448C135.212 210.007 134.209 210.216 130.804 210.728C129.591 210.891 128.379 211.1 128.121 211.147C127.864 211.194 125.461 211.38 122.802 211.543C118.86 211.775 117.204 211.775 114.031 211.543C109.226 211.194 103.347 210.309 99.7783 209.425C99.1952 209.285 98.3789 209.099 97.959 209.029C97.5391 208.959 97.1422 208.819 97.0722 208.703C97.0022 208.587 96.6524 208.494 96.2793 208.494C95.906 208.494 95.5329 208.377 95.4629 208.26C95.3928 208.121 95.1129 208.028 94.8564 208.028C94.6232 208.028 94.2264 207.934 93.9931 207.795C93.783 207.678 93.1298 207.422 92.5469 207.236C87.9049 205.746 80.1839 201.836 75.3086 198.531C74.6321 198.065 73.8385 197.506 73.5586 197.32C73.2781 197.133 72.0889 196.249 70.9463 195.365C61.6855 188.172 53.8938 178.699 47.9687 167.293C47.4787 166.338 46.0564 163.173 45.4033 161.52C45.2867 161.241 45.0765 160.729 44.9365 160.356C44.7732 160.007 44.5863 159.519 44.4697 159.262C43.6766 157.284 41.1347 148.905 40.2715 145.413C39.525 142.364 39.6176 142.712 38.8945 139.477C38.1481 136.149 38.2181 136.474 37.0518 130.561C36.6552 128.676 36.3291 127.186 36.1191 126.209C35.6293 124.184 35.4188 123.393 35.1855 122.601C35.0689 122.159 34.8825 121.53 34.8125 121.204C34.7192 120.878 34.5559 120.367 34.416 120.041C34.2761 119.715 34.0894 119.249 33.9961 118.993C33.7161 118.295 32.4103 115.618 31.8271 114.57C30.6141 112.429 27.2782 109.449 24.1758 107.773C20.1869 105.609 20.0233 105.143 20 95.3436C20 88.8727 20.0237 88.3839 20.4902 87.2899C20.9101 86.2658 21.1428 86.0324 22.3789 85.3807C23.172 84.985 23.9423 84.6591 24.1289 84.6591C24.2921 84.6591 24.6183 84.5664 24.8516 84.4501C25.0615 84.3337 25.7148 84.1238 26.2979 83.9608C26.881 83.8212 27.6747 83.5889 28.0713 83.4725C28.4677 83.3562 29.0505 83.2627 29.4004 83.2626C29.7268 83.2626 30.0538 83.1699 30.124 83.0536C30.194 82.9605 30.7068 82.7971 31.2432 82.704C32.1996 82.5876 33.3197 82.3549 35.4658 81.8661C36.0023 81.7497 36.9825 81.5401 37.6123 81.4237C38.8016 81.191 39.4548 81.0518 40.5742 80.7958C40.9234 80.7261 41.2727 80.6788 41.3437 80.6786C41.3904 80.6786 41.7872 80.5625 42.207 80.4462C42.6269 80.3298 43.3507 80.1674 43.7939 80.0975C44.2375 80.0276 45.6598 79.7481 46.9424 79.4921C48.2254 79.236 49.742 78.9337 50.3252 78.8173C50.9084 78.7009 51.8416 78.5146 52.4248 78.3749C53.0079 78.2353 54.0571 78.0253 54.7568 77.8856C55.4566 77.746 56.4831 77.5362 57.043 77.4198C61.0551 76.5586 63.3648 76.117 69.2197 75.1161C84.6155 72.4858 109.156 71.6477 125.321 73.2538C130.173 73.7426 136.938 74.7197 141.184 75.581C141.953 75.7439 143.05 75.9538 143.633 76.0702C144.939 76.303 146.502 76.6524 147.715 76.955C148.228 77.0714 149.115 77.3034 149.698 77.4198C151.378 77.8155 154.574 78.6774 156.347 79.2128C157 79.4222 158.049 79.7247 158.679 79.8876C159.775 80.1669 164.161 81.6563 165.211 82.0985C165.468 82.1918 166.423 82.5649 167.31 82.914C168.219 83.2631 169.317 83.7053 169.76 83.8915C170.203 84.0776 170.785 84.3335 171.042 84.4266C171.905 84.7525 173.585 85.5442 178.391 87.872C183.708 90.4321 184.012 90.572 185.878 90.9677C187.301 91.2702 190.707 91.154 193.902 90.7118C196.515 90.3394 198.685 90.0593 201.134 89.7567C209.158 88.8256 217.649 88.4769 224.461 88.8261C227.283 88.989 230.432 89.1979 231.459 89.3143C232.485 89.4307 234.305 89.6403 235.495 89.7567C240.65 90.3619 242.096 90.5021 244.522 90.6884C245.945 90.8047 247.975 90.8511 249.071 90.8046C252.08 90.6416 253.13 90.2919 258.355 87.8944C259.149 87.522 260.455 86.9172 261.271 86.5448C263.837 85.3578 265.4 84.6591 265.517 84.6591C265.587 84.6591 266.146 84.4501 266.753 84.1708C268.432 83.4259 268.642 83.3322 271.488 82.2382C274.031 81.2838 279.536 79.5618 283.478 78.4911C284.248 78.2816 285.251 78.0019 285.694 77.8622C286.721 77.5829 288.074 77.2576 289.38 76.955C289.916 76.8386 290.826 76.629 291.409 76.5126C293.765 76.0005 295.585 75.6282 298.477 75.1161C300.624 74.7204 302.116 74.4405 303.423 74.1845C310.421 72.881 318.026 71.8802 328.149 70.9491C333.748 70.4138 340.092 69.553 342.962 68.9013C343.358 68.8083 343.707 68.7382 343.778 68.7148C344.081 68.6682 345.783 68.2726 345.878 68.2489C345.948 68.2257 346.462 68.1331 347.045 68.04C348.491 67.7605 351.593 66.4101 353.062 65.4325C354.952 64.1057 356.912 61.2423 358.592 57.3085C358.802 56.7965 359.081 56.168 359.175 55.912C359.432 55.3293 360.644 51.6053 361.041 50.2089C361.624 48.1145 361.74 47.7418 362.184 45.787C362.603 43.925 362.813 42.9004 363.373 40.247C363.816 38.1754 364.889 31.122 365.263 27.8632C365.403 26.7693 365.589 25.2101 365.706 24.372C365.823 23.5341 366.033 21.4153 366.173 19.623C366.289 17.8541 366.476 16.3175 366.546 16.2011ZM275.104 64.1757C275.291 64.1759 275.383 64.2686 275.313 64.4081C275.243 64.5245 275.08 64.6415 274.94 64.6415C274.824 64.6413 274.73 64.5244 274.73 64.4081C274.731 64.2687 274.895 64.1757 275.104 64.1757ZM183.966 46.9511C184.106 46.9513 184.222 47.044 184.222 47.1835C184.222 47.2998 184.175 47.4157 184.129 47.416C184.059 47.416 183.942 47.2999 183.872 47.1835C183.802 47.0439 183.849 46.9511 183.966 46.9511ZM272.258 24.6045C272.468 24.6045 272.631 24.768 272.631 24.9775C272.63 25.3728 272.117 25.3026 271.977 24.8838C271.931 24.721 272.048 24.6045 272.258 24.6045Z" fill="url(#paint0_linear_624_11168)"/>
</g>
<path opacity="0.93" d="M190 140.5C190 173.913 160.317 207 120 207C79.6832 207 44 170.413 44 137C44 103.587 55.5 78 129.5 82C169.817 82 190 107.087 190 140.5Z" fill="url(#paint1_linear_624_11168)"/>
<path opacity="0.93" d="M245 140.5C245 173.913 274.683 207 315 207C355.317 207 391 170.413 391 137C391 103.587 379.5 78 305.5 82C265.183 82 245 107.087 245 140.5Z" fill="url(#paint2_linear_624_11168)"/>
<path d="M126.158 207.487C126.321 207.557 126.531 207.534 126.601 207.464C126.695 207.394 126.555 207.324 126.298 207.347C126.042 207.347 125.972 207.417 126.158 207.487Z" fill="black"/>
<path d="M271.978 122.884C272.118 123.303 272.631 123.373 272.631 122.977C272.631 122.768 272.468 122.605 272.258 122.605C272.048 122.605 271.931 122.721 271.978 122.884Z" fill="black"/>
<path d="M183.873 145.184C183.943 145.3 184.059 145.417 184.129 145.417C184.176 145.417 184.223 145.3 184.223 145.184C184.223 145.044 184.106 144.951 183.966 144.951C183.849 144.951 183.803 145.044 183.873 145.184Z" fill="black"/>
<path d="M274.73 162.408C274.73 162.525 274.824 162.641 274.94 162.641C275.08 162.641 275.244 162.525 275.314 162.408C275.384 162.269 275.29 162.176 275.104 162.176C274.894 162.176 274.73 162.269 274.73 162.408Z" fill="black"/>
<g filter="url(#filter1_i_624_11168)">
<path d="M366.546 16.2011C366.756 15.8524 367.059 15.9693 367.223 16.458C367.292 16.6915 367.339 17.5753 367.315 18.3662C367.292 19.1808 367.409 20.6237 367.549 21.5781C367.712 22.5323 367.922 23.9988 368.039 24.8369C368.529 28.2353 369.205 32.2625 369.905 36.0566C370.325 38.361 370.558 39.4788 371.328 42.9238C371.445 43.5522 371.631 44.3906 371.701 44.8095C371.771 45.2279 371.911 45.6229 372.027 45.6933C372.144 45.7631 372.237 46.0665 372.237 46.3691C372.237 46.6717 372.331 47.1604 372.447 47.4628C372.564 47.7655 372.797 48.464 372.937 49.0458C373.334 50.4193 374.547 54.1652 374.804 54.748C374.92 55.004 375.2 55.6797 375.41 56.2616C375.643 56.8438 376.413 58.4268 377.09 59.8232C378.746 63.1049 380.612 65.1535 383.131 66.4569C385.417 67.6208 389.15 68.9009 392.183 69.5526C392.836 69.669 393.792 69.8788 394.351 70.0185C396.777 70.5538 398.574 70.9029 401.583 71.4149C402.236 71.5313 403.403 71.7177 404.149 71.8573C405.852 72.1599 408.045 72.4854 410.214 72.788C411.123 72.9044 412.71 73.1368 413.713 73.2997C414.693 73.4394 416.326 73.5564 417.329 73.5331C419.032 73.4866 420.291 73.7894 419.941 74.1386C419.869 74.2318 418.097 74.4406 416.022 74.6034C402.539 75.6509 395.774 76.6988 390.549 78.4911C385.604 80.1904 381.475 83.2397 378.979 86.9872C377.906 88.6166 376.413 91.6197 375.853 93.2723C375.597 93.9705 375.317 94.6454 375.224 94.785C375.13 94.9014 375.037 95.2274 375.037 95.5067C375.037 95.809 374.944 96.088 374.827 96.1581C374.71 96.2279 374.57 96.5775 374.5 96.9266C374.43 97.2991 374.243 97.9977 374.103 98.5096C373.963 99.0217 373.731 99.8362 373.614 100.302C373.498 100.79 373.287 101.629 373.147 102.164C373.031 102.722 372.821 103.63 372.704 104.212C372.587 104.794 372.377 105.772 372.237 106.424C371.887 107.983 371.421 110.427 370.838 113.685C370.698 114.36 370.511 115.502 370.371 116.2C370.044 117.969 369.742 119.645 369.438 121.437L368.505 127.023C368.388 127.861 368.179 129.212 368.062 130.05C367.922 130.888 367.712 132.61 367.572 133.89C367.292 136.66 367.175 137.265 366.872 137.265C366.755 137.263 366.616 136.193 366.569 134.868C366.453 132.54 366.196 129.887 365.706 126.675C365.589 125.767 365.356 124.207 365.239 123.182C365.123 122.158 364.796 120.111 364.54 118.644C364.26 117.178 363.956 115.338 363.84 114.57C363.513 112.592 362.93 109.636 362.44 107.704C362.324 107.262 362.114 106.354 361.974 105.725C361.81 105.074 361.6 104.305 361.507 103.979C361.413 103.653 361.088 102.606 360.831 101.651C360.551 100.697 360.224 99.7207 360.107 99.5106C359.967 99.2778 359.874 98.9745 359.874 98.8348C359.873 98.3913 357.961 94.6213 357.005 93.1552C355.209 90.4319 352.596 88.1746 349.797 86.8944C348.141 86.1496 345.109 85.125 344.502 85.1249C344.246 85.1249 343.989 85.0321 343.919 84.9159C343.849 84.8228 343.289 84.6594 342.683 84.5663C342.053 84.4965 340.979 84.3339 340.279 84.1942C334.144 83.077 319.401 83.0769 309.954 84.1942C307.342 84.52 304.846 84.8687 303.54 85.1014C300.577 85.6601 299.48 85.8695 298.407 86.079C297.777 86.1954 296.844 86.3822 296.354 86.452C295.888 86.5219 295.422 86.6609 295.351 86.7772C295.282 86.8936 295.002 86.9872 294.745 86.9872C294.465 86.9872 293.929 87.0798 293.532 87.1962C293.136 87.3125 292.343 87.5459 291.76 87.7089C290.127 88.1279 287.957 88.8491 287.514 89.0819C287.339 89.1866 287.098 89.265 286.91 89.2977L286.578 89.3309C286.39 89.3626 286.15 89.437 285.975 89.5243C285.485 89.7803 284.691 90.1058 283.361 90.5946C279.442 92.0611 274.777 94.529 271.441 96.9032C266.869 100.185 262.554 104.678 260.104 108.635C259.755 109.217 259.405 109.729 259.335 109.799C259.265 109.869 258.985 110.335 258.705 110.847C258.448 111.359 258.006 112.149 257.772 112.592C256.583 114.756 254.95 119.621 254.227 123.066C253.527 126.558 253.293 134.286 253.736 139.989C253.97 142.782 254.11 143.923 254.693 147.042C255.37 150.65 257.026 156.19 257.959 158.029C258.075 158.262 258.169 158.541 258.169 158.68C258.169 159.751 263.44 169.505 265.446 172.181C265.703 172.507 266.333 173.345 266.869 174.044C275.523 185.496 288.797 194.155 302.84 197.53C306.362 198.391 306.712 198.461 309.838 198.88C315.32 199.624 326.026 199.299 331.182 198.205C333.981 197.623 338.343 196.459 339.696 195.924C339.953 195.83 340.536 195.621 340.979 195.458C342.822 194.829 343.289 194.62 347.045 192.828C348.771 191.99 350.59 191.036 351.08 190.71C351.57 190.384 352.013 190.104 352.083 190.104C352.153 190.104 353.133 189.5 354.253 188.755C363.35 182.726 370.068 175.696 375.713 166.292C377.042 164.104 379.516 158.983 380.379 156.702C381.032 154.956 381.335 154.258 381.592 153.746C381.708 153.513 381.802 153.117 381.802 152.885C381.802 152.629 381.918 152.349 382.035 152.279C382.175 152.209 382.268 151.837 382.268 151.465C382.268 151.092 382.362 150.743 382.478 150.674C382.595 150.604 382.735 150.254 382.805 149.905C382.945 149.253 383.225 148.02 383.691 146.227C385.604 138.732 385.953 128.77 384.577 121.437C384.46 120.739 384.274 119.761 384.204 119.272C384.134 118.807 383.994 118.341 383.878 118.271C383.761 118.202 383.668 117.899 383.668 117.597C383.668 117.294 383.574 116.805 383.458 116.503C383.341 116.2 383.131 115.502 382.968 114.92C382.804 114.338 382.595 113.686 382.478 113.476C382.362 113.244 382.268 112.871 382.268 112.639C382.268 112.406 382.175 112.126 382.082 112.01C381.989 111.87 381.755 111.358 381.592 110.847C381.172 109.52 380.706 108.518 379.609 106.54C378.093 103.77 378.022 103.141 378.815 100.139C378.955 99.6266 379.142 98.9982 379.235 98.7421C379.329 98.4861 379.562 97.8112 379.726 97.2294C380.169 95.7165 382.011 92.2018 383.131 90.7118C384.927 88.291 390.13 83.7284 391.109 83.7284C391.226 83.7282 391.716 83.5418 392.228 83.286C394.444 82.2153 396.264 82.006 400.347 82.3319C403.402 82.5647 405.338 82.8204 407.694 83.2626C408.394 83.4022 409.398 83.565 409.911 83.6581C410.424 83.7279 410.937 83.8679 411.077 83.9843C411.194 84.1006 411.637 84.1942 412.033 84.1942C412.453 84.1942 412.873 84.287 412.943 84.4266C413.013 84.543 413.293 84.6591 413.526 84.6591C413.76 84.6591 414.529 84.9624 415.206 85.3348C416.139 85.8236 416.582 86.2426 416.955 87.0106C417.445 87.9882 417.469 88.2909 417.469 94.785C417.469 98.486 417.375 102.001 417.259 102.583C417.119 103.165 416.956 103.863 416.909 104.166C416.722 104.957 414.973 106.749 413.76 107.354C411.894 108.309 408.534 110.637 407.555 111.684C404.009 115.432 401.886 120.995 400.113 131.214C399.973 132.075 399.693 133.425 399.32 135.171C398.994 136.777 398.597 138.662 398.364 139.826C398.248 140.408 398.037 141.339 397.897 141.921C397.757 142.503 397.547 143.387 397.431 143.899C397.127 145.226 396.801 146.553 396.521 147.508C396.125 148.881 395.845 149.928 395.682 150.533C395.588 150.859 395.448 151.325 395.331 151.581C395.238 151.837 394.935 152.768 394.655 153.676C394.049 155.584 393.279 157.703 392.975 158.262C392.859 158.494 392.766 158.773 392.766 158.913C392.766 159.658 387.774 169.667 385.744 172.949C385.371 173.554 385.067 174.09 385.067 174.136C385.067 174.324 382.128 178.605 380.752 180.444C376.413 186.217 371.141 191.548 365.1 196.273C361.041 199.439 352.946 203.978 347.931 205.91C347.044 206.236 346.019 206.678 345.599 206.887C345.365 207.004 344.969 207.096 344.735 207.096C344.479 207.096 344.199 207.19 344.129 207.33C344.068 207.432 343.809 207.534 343.543 207.557L343.314 207.567C343.048 207.591 342.79 207.693 342.728 207.795C342.658 207.934 342.332 208.028 342.029 208.028C341.726 208.028 341.423 208.121 341.352 208.237C341.282 208.353 340.933 208.493 340.583 208.563C340.21 208.633 339.51 208.796 338.997 208.935C335.918 209.703 334.308 210.076 332.582 210.355C331.882 210.472 330.669 210.681 329.899 210.798C327.66 211.193 320.755 211.752 318.352 211.729C313.081 211.729 304.496 210.682 299.574 209.448C299.061 209.308 298.338 209.145 297.941 209.075C297.568 208.982 297.031 208.843 296.774 208.75C296.517 208.633 295.258 208.214 293.976 207.818C292.693 207.399 291.41 206.98 291.13 206.864C290.29 206.492 289.357 206.12 288.844 205.933C286.651 205.095 282.569 203.046 279.746 201.417C275.594 198.973 272.818 197.018 268.036 193.107C264.77 190.43 259.265 184.472 255.486 179.537C253.993 177.582 250.471 172.297 249.421 170.435C249.281 170.179 248.698 169.179 248.161 168.224C246.505 165.338 244.312 160.659 242.772 156.818C240.09 150.091 237.945 142.386 236.965 135.869C235.868 128.723 236.055 126.162 237.874 123.113C240.627 118.481 240.673 113.942 238.014 111.474C236.171 109.775 233.465 108.868 228.077 108.146C225.674 107.844 209.322 108.006 207.199 108.379C204.423 108.844 204.167 108.891 203.7 109.1C203.444 109.194 202.767 109.473 202.184 109.682C198.568 111.009 197.145 113.151 197.355 117.014C197.495 119.784 197.798 120.716 199.687 124.114C200.667 125.86 200.831 127.233 200.527 131.33C200.271 134.961 199.875 137.871 199.175 141.037C199.035 141.665 198.825 142.596 198.708 143.132C198.591 143.69 198.358 144.551 198.218 145.063C197.798 146.53 197.518 147.554 197.262 148.438C197.122 148.881 196.959 149.533 196.889 149.905C196.819 150.254 196.679 150.604 196.562 150.674C196.446 150.743 196.352 151.022 196.352 151.325C196.352 151.604 196.258 151.93 196.165 152.047C196.072 152.187 195.839 152.699 195.676 153.211C195.512 153.723 195.302 154.351 195.186 154.607C195.092 154.864 194.766 155.702 194.463 156.47C192.947 160.45 190.17 166.339 188.187 169.737C187.884 170.249 187.534 170.877 187.394 171.134C186.578 172.577 182.915 178.024 181.726 179.584C181.236 180.212 180.536 181.12 180.14 181.632C176.99 185.775 170.459 192.316 166.703 195.109C166.376 195.365 165.514 196.017 164.814 196.529C161.479 199.066 156.183 202.278 152.381 204.024C151.494 204.443 150.351 205.001 149.861 205.258C149.348 205.49 148.858 205.7 148.741 205.7C148.529 205.701 146.711 206.469 145.919 206.887C145.686 207.004 145.312 207.096 145.079 207.096C144.846 207.096 144.566 207.19 144.449 207.283C144.309 207.399 143.423 207.725 142.467 208.005C141.511 208.307 140.508 208.633 140.251 208.726C139.994 208.843 139.481 208.982 139.084 209.075C138.711 209.145 137.964 209.308 137.451 209.448C135.212 210.007 134.209 210.216 130.804 210.728C129.591 210.891 128.379 211.1 128.121 211.147C127.864 211.194 125.461 211.38 122.802 211.543C118.86 211.775 117.204 211.775 114.031 211.543C109.226 211.194 103.347 210.309 99.7783 209.425C99.1952 209.285 98.3789 209.099 97.959 209.029C97.5391 208.959 97.1422 208.819 97.0722 208.703C97.0022 208.587 96.6524 208.494 96.2793 208.494C95.906 208.494 95.5329 208.377 95.4629 208.26C95.3928 208.121 95.1129 208.028 94.8564 208.028C94.6232 208.028 94.2264 207.934 93.9931 207.795C93.783 207.678 93.1298 207.422 92.5469 207.236C87.9049 205.746 80.1839 201.836 75.3086 198.531C74.6321 198.065 73.8385 197.506 73.5586 197.32C73.2781 197.133 72.0889 196.249 70.9463 195.365C61.6855 188.172 53.8938 178.699 47.9687 167.293C47.4787 166.338 46.0564 163.173 45.4033 161.52C45.2867 161.241 45.0765 160.729 44.9365 160.356C44.7732 160.007 44.5863 159.519 44.4697 159.262C43.6766 157.284 41.1347 148.905 40.2715 145.413C39.525 142.364 39.6176 142.712 38.8945 139.477C38.1481 136.149 38.2181 136.474 37.0518 130.561C36.6552 128.676 36.3291 127.186 36.1191 126.209C35.6293 124.184 35.4188 123.393 35.1855 122.601C35.0689 122.159 34.8825 121.53 34.8125 121.204C34.7192 120.878 34.5559 120.367 34.416 120.041C34.2761 119.715 34.0894 119.249 33.9961 118.993C33.7161 118.295 32.4103 115.618 31.8271 114.57C30.6141 112.429 27.2782 109.449 24.1758 107.773C20.1869 105.609 20.0233 105.143 20 95.3436C20 88.8727 20.0237 88.3839 20.4902 87.2899C20.9101 86.2658 21.1428 86.0324 22.3789 85.3807C23.172 84.985 23.9423 84.6591 24.1289 84.6591C24.2921 84.6591 24.6183 84.5664 24.8516 84.4501C25.0615 84.3337 25.7148 84.1238 26.2979 83.9608C26.881 83.8212 27.6747 83.5889 28.0713 83.4725C28.4677 83.3562 29.0505 83.2627 29.4004 83.2626C29.7268 83.2626 30.0538 83.1699 30.124 83.0536C30.194 82.9605 30.7068 82.7971 31.2432 82.704C32.1996 82.5876 33.3197 82.3549 35.4658 81.8661C36.0023 81.7497 36.9825 81.5401 37.6123 81.4237C38.8016 81.191 39.4548 81.0518 40.5742 80.7958C40.9234 80.7261 41.2727 80.6788 41.3437 80.6786C41.3904 80.6786 41.7872 80.5625 42.207 80.4462C42.6269 80.3298 43.3507 80.1674 43.7939 80.0975C44.2375 80.0276 45.6598 79.7481 46.9424 79.4921C48.2254 79.236 49.742 78.9337 50.3252 78.8173C50.9084 78.7009 51.8416 78.5146 52.4248 78.3749C53.0079 78.2353 54.0571 78.0253 54.7568 77.8856C55.4566 77.746 56.4831 77.5362 57.043 77.4198C61.0551 76.5586 63.3648 76.117 69.2197 75.1161C84.6155 72.4858 109.156 71.6477 125.321 73.2538C130.173 73.7426 136.938 74.7197 141.184 75.581C141.953 75.7439 143.05 75.9538 143.633 76.0702C144.939 76.303 146.502 76.6524 147.715 76.955C148.228 77.0714 149.115 77.3034 149.698 77.4198C151.378 77.8155 154.574 78.6774 156.347 79.2128C157 79.4222 158.049 79.7247 158.679 79.8876C159.775 80.1669 164.161 81.6563 165.211 82.0985C165.468 82.1918 166.423 82.5649 167.31 82.914C168.219 83.2631 169.317 83.7053 169.76 83.8915C170.203 84.0776 170.785 84.3335 171.042 84.4266C171.905 84.7525 173.585 85.5442 178.391 87.872C183.708 90.4321 184.012 90.572 185.878 90.9677C187.301 91.2702 190.707 91.154 193.902 90.7118C196.515 90.3394 198.685 90.0593 201.134 89.7567C209.158 88.8256 217.649 88.4769 224.461 88.8261C227.283 88.989 230.432 89.1979 231.459 89.3143C232.485 89.4307 234.305 89.6403 235.495 89.7567C240.65 90.3619 242.096 90.5021 244.522 90.6884C245.945 90.8047 247.975 90.8511 249.071 90.8046C252.08 90.6416 253.13 90.2919 258.355 87.8944C259.149 87.522 260.455 86.9172 261.271 86.5448C263.837 85.3578 265.4 84.6591 265.517 84.6591C265.587 84.6591 266.146 84.4501 266.753 84.1708C268.432 83.4259 268.642 83.3322 271.488 82.2382C274.031 81.2838 279.536 79.5618 283.478 78.4911C284.248 78.2816 285.251 78.0019 285.694 77.8622C286.721 77.5829 288.074 77.2576 289.38 76.955C289.916 76.8386 290.826 76.629 291.409 76.5126C293.765 76.0005 295.585 75.6282 298.477 75.1161C300.624 74.7204 302.116 74.4405 303.423 74.1845C310.421 72.881 318.026 71.8802 328.149 70.9491C333.748 70.4138 340.092 69.553 342.962 68.9013C343.358 68.8083 343.707 68.7382 343.778 68.7148C344.081 68.6682 345.783 68.2726 345.878 68.2489C345.948 68.2257 346.462 68.1331 347.045 68.04C348.491 67.7605 351.593 66.4101 353.062 65.4325C354.952 64.1057 356.912 61.2423 358.592 57.3085C358.802 56.7965 359.081 56.168 359.175 55.912C359.432 55.3293 360.644 51.6053 361.041 50.2089C361.624 48.1145 361.74 47.7418 362.184 45.787C362.603 43.925 362.813 42.9004 363.373 40.247C363.816 38.1754 364.889 31.122 365.263 27.8632C365.403 26.7693 365.589 25.2101 365.706 24.372C365.823 23.5341 366.033 21.4153 366.173 19.623C366.289 17.8541 366.476 16.3175 366.546 16.2011ZM121.939 83.705C118.698 83.4722 104.986 83.1928 104.561 83.3788C104.444 83.4253 102.694 83.5887 100.711 83.7284C96.4889 84.031 92.4769 84.4966 90.0976 85.0087C87.485 85.544 83.9394 86.4289 83.0996 86.7548C82.843 86.8479 82.2133 87.0565 81.7002 87.1962C81.187 87.3591 80.5102 87.5926 80.1836 87.7323C79.857 87.872 79.3903 88.0582 79.1338 88.1513C73.2088 90.4324 67.2835 94.459 63.4346 98.8583C58.396 104.631 54.8737 112.103 53.5674 119.807C52.7276 124.812 52.4707 129.607 52.6807 135.799C52.8906 141.432 53.1942 143.69 54.6172 149.952C55.3637 153.234 57.4868 159.006 59.0264 161.939C64.2282 171.855 70.9927 179.723 79.9502 186.31C87.9279 192.153 97.142 196.226 106.893 198.228C114.077 199.718 126.908 199.485 133.603 197.786C134.046 197.67 134.955 197.461 135.585 197.298C137.498 196.855 142 195.318 143.866 194.48C152.87 190.453 158.703 186.474 165.024 180.003C169.783 175.161 173.002 170.692 176.151 164.686C178.204 160.729 179.813 156.818 180.769 153.327C180.886 152.885 181.096 152.139 181.213 151.697C181.843 149.556 182.659 145.18 183.103 141.572C183.476 138.662 183.476 128.048 183.126 125.511C182.869 123.788 182.729 123.02 182.169 120.623C181.749 118.807 180.28 114.78 179.323 112.825C177.154 108.402 175.125 105.609 171.393 101.861C166.284 96.717 160.801 93.2951 152.264 89.9432C151.937 89.8268 151.494 89.6406 151.284 89.5243C151.051 89.4079 150.678 89.3143 150.444 89.3143C150.211 89.3143 149.931 89.2219 149.791 89.1288C149.674 89.0124 149.115 88.8024 148.532 88.6395C147.949 88.4767 147.296 88.2443 147.086 88.1278C146.853 88.0114 146.409 87.9179 146.105 87.9179C145.779 87.9178 145.477 87.8251 145.406 87.7089C145.336 87.5925 144.939 87.4525 144.52 87.3827C144.1 87.3129 143.283 87.1268 142.7 86.9872C142.117 86.8475 141.347 86.6617 140.95 86.6151C140.577 86.5453 140.041 86.4053 139.784 86.2889C139.528 86.1726 138.944 86.0326 138.501 85.9628C138.058 85.8929 137.101 85.7304 136.401 85.5907C132.576 84.8459 126.745 84.0774 121.939 83.705Z" fill="url(#paint3_linear_624_11168)"/>
</g>
<g clip-path="url(#paint4_diamond_624_11168_clip_path)" data-figma-skip-parse="true"><g transform="matrix(0 0.0216018 -0.0171721 0 367.269 73.9995)"><rect x="0" y="0" width="2129.43" height="2541.34" fill="url(#paint4_diamond_624_11168)" opacity="1" shape-rendering="crispEdges"/><rect x="0" y="0" width="2129.43" height="2541.34" transform="scale(1 -1)" fill="url(#paint4_diamond_624_11168)" opacity="1" shape-rendering="crispEdges"/><rect x="0" y="0" width="2129.43" height="2541.34" transform="scale(-1 1)" fill="url(#paint4_diamond_624_11168)" opacity="1" shape-rendering="crispEdges"/><rect x="0" y="0" width="2129.43" height="2541.34" transform="scale(-1)" fill="url(#paint4_diamond_624_11168)" opacity="1" shape-rendering="crispEdges"/></g></g><path fill-rule="evenodd" clip-rule="evenodd" d="M367.092 46.7401V46.001C367.12 46.0254 367.146 46.0612 367.169 46.1081C367.192 46.0606 367.219 46.0244 367.247 46V46.751C367.249 46.8507 367.249 46.9549 367.247 47.057V47.3891C367.258 47.7822 367.304 48.2945 367.358 48.6592C367.437 49.1204 367.539 49.8292 367.595 50.2344C367.832 51.8771 368.158 53.8242 368.496 55.6582C368.699 56.772 368.813 57.3125 369.185 58.9775C369.211 59.1189 369.244 59.2824 369.276 59.4371L369.276 59.4372C369.312 59.6145 369.346 59.7804 369.364 59.8887C369.398 60.0909 369.466 60.2823 369.523 60.3164C369.579 60.3505 369.624 60.4967 369.624 60.6426C369.624 60.7888 369.669 61.0256 369.726 61.1719C369.782 61.3183 369.895 61.6556 369.962 61.9365C370.154 62.6001 370.74 64.4107 370.864 64.6934C370.921 64.8172 371.056 65.1437 371.157 65.4248C371.262 65.6854 371.589 66.361 371.897 66.9956L371.97 67.1465C372.77 68.7327 373.672 69.7234 374.89 70.3535C375.995 70.9161 377.8 71.5346 379.266 71.8496C379.581 71.9059 380.043 72.0077 380.314 72.0752C381.486 72.3339 382.355 72.5025 383.81 72.75C383.938 72.7728 384.106 72.8011 384.285 72.8311L384.285 72.8313C384.549 72.8755 384.835 72.9237 385.05 72.9639C385.873 73.1101 386.933 73.2678 387.982 73.4141C388.421 73.4703 389.188 73.5824 389.673 73.6611C390.147 73.7286 390.936 73.7847 391.421 73.7734C392.133 73.754 392.683 73.8615 392.709 74C392.683 74.1385 392.133 74.246 391.421 74.2266C390.936 74.2153 390.147 74.2714 389.673 74.3389C389.188 74.4176 388.421 74.5297 387.982 74.5859C386.933 74.7322 385.873 74.8899 385.05 75.0361C384.835 75.0763 384.549 75.1245 384.285 75.1687L384.285 75.1688C384.106 75.1989 383.938 75.2272 383.81 75.25C382.355 75.4975 381.486 75.666 380.314 75.9248C380.043 75.9923 379.581 76.0941 379.266 76.1504C377.8 76.4654 375.995 77.0839 374.89 77.6465C373.672 78.2766 372.77 79.2673 371.97 80.8535L371.897 81.0044C371.589 81.6389 371.262 82.3146 371.157 82.5752C371.056 82.8563 370.921 83.1828 370.864 83.3066C370.74 83.5893 370.154 85.3998 369.962 86.0635C369.894 86.3444 369.782 86.6817 369.726 86.8281C369.669 86.9744 369.624 87.2112 369.624 87.3574C369.624 87.5033 369.579 87.6495 369.523 87.6836C369.466 87.7177 369.398 87.9091 369.364 88.1113C369.346 88.2196 369.312 88.3855 369.276 88.5629C369.244 88.7176 369.211 88.881 369.185 89.0225C368.813 90.6875 368.699 91.228 368.496 92.3418C368.158 94.1758 367.832 96.1229 367.595 97.7656C367.539 98.1707 367.437 98.8796 367.358 99.3408C367.304 99.7053 367.258 100.217 367.247 100.61V100.944C367.249 101.045 367.249 101.149 367.247 101.248V101.999C367.219 101.975 367.192 101.939 367.169 101.892C367.146 101.939 367.12 101.975 367.092 101.999V101.259C367.09 101.156 367.09 101.049 367.092 100.943V100.61C367.081 100.217 367.034 99.7052 366.981 99.3407C366.902 98.8796 366.8 98.1707 366.744 97.7655C366.507 96.1228 366.181 94.1757 365.842 92.3417C365.639 91.2279 365.526 90.6874 365.154 89.0224C365.128 88.881 365.094 88.7176 365.062 88.5629L365.062 88.5627C365.026 88.3854 364.992 88.2195 364.974 88.1112C364.94 87.909 364.872 87.7177 364.816 87.6835C364.76 87.6494 364.714 87.5032 364.714 87.3573C364.714 87.2111 364.669 86.9743 364.613 86.828C364.556 86.6817 364.444 86.3443 364.376 86.0634C364.185 85.3998 363.599 83.5893 363.474 83.3065C363.418 83.1827 363.283 82.8562 363.181 82.5751C363.077 82.3145 362.749 81.6388 362.442 81.0043L362.442 81.0042L362.369 80.8534C361.568 79.2672 360.666 78.2765 359.449 77.6464C358.344 77.0838 356.538 76.4653 355.073 76.1503C354.757 76.094 354.295 75.9922 354.025 75.9247C352.852 75.666 351.983 75.4974 350.529 75.2499C350.401 75.2271 350.233 75.1988 350.054 75.1687L350.053 75.1686L350.053 75.1686C349.79 75.1243 349.503 75.0762 349.289 75.036C348.466 74.8898 347.405 74.7321 346.357 74.5858C345.917 74.5296 345.15 74.4175 344.666 74.3388C344.192 74.2713 343.402 74.2142 342.917 74.2255C342.206 74.2449 341.656 74.1382 341.629 74H341.629L341.629 73.9999L341.629 73.9999H341.629C341.656 73.8614 342.206 73.754 342.917 73.7734C343.402 73.7847 344.192 73.7286 344.666 73.6611C345.15 73.5824 345.917 73.4703 346.357 73.4141C347.405 73.2678 348.466 73.1101 349.289 72.9639C349.503 72.9237 349.79 72.8755 350.053 72.8313L350.054 72.8312C350.233 72.8011 350.401 72.7728 350.529 72.75C351.983 72.5025 352.852 72.3339 354.025 72.0752C354.295 72.0077 354.757 71.9059 355.073 71.8496C356.538 71.5346 358.344 70.9161 359.449 70.3535C360.666 69.7234 361.568 68.7327 362.369 67.1465L362.442 66.9958L362.442 66.9958C362.749 66.3612 363.077 65.6854 363.181 65.4248C363.283 65.1437 363.418 64.8172 363.474 64.6934C363.599 64.4106 364.185 62.6001 364.376 61.9365C364.444 61.6556 364.556 61.3183 364.613 61.1719C364.669 61.0256 364.714 60.7888 364.714 60.6426C364.714 60.4967 364.76 60.3505 364.816 60.3164C364.872 60.2822 364.94 60.0909 364.974 59.8887C364.992 59.7805 365.026 59.6146 365.062 59.4373L365.062 59.4371L365.062 59.437C365.094 59.2823 365.128 59.1189 365.154 58.9775C365.526 57.3125 365.639 56.772 365.842 55.6582C366.181 53.8242 366.507 51.8771 366.744 50.2344C366.8 49.8292 366.902 49.1204 366.981 48.6592C367.034 48.2945 367.081 47.7822 367.092 47.3891V47.0572C367.09 46.9513 367.09 46.8431 367.092 46.7401Z" data-figma-gradient-fill="{&#34;type&#34;:&#34;GRADIENT_DIAMOND&#34;,&#34;stops&#34;:[{&#34;color&#34;:{&#34;r&#34;:1.0,&#34;g&#34;:0.9755970835685730,&#34;b&#34;:0.91348034143447876,&#34;a&#34;:1.0},&#34;position&#34;:0.0},{&#34;color&#34;:{&#34;r&#34;:0.96728885173797607,&#34;g&#34;:0.88122928142547607,&#34;b&#34;:0.67552053928375244,&#34;a&#34;:1.0},&#34;position&#34;:0.22115384042263031},{&#34;color&#34;:{&#34;r&#34;:0.95085263252258301,&#34;g&#34;:0.75967276096343994,&#34;b&#34;:0.32378417253494263,&#34;a&#34;:1.0},&#34;position&#34;:0.46634614467620850},{&#34;color&#34;:{&#34;r&#34;:0.99911731481552124,&#34;g&#34;:0.77958428859710693,&#34;b&#34;:0.27905035018920898,&#34;a&#34;:1.0},&#34;position&#34;:0.81250}],&#34;stopsVar&#34;:[{&#34;color&#34;:{&#34;r&#34;:1.0,&#34;g&#34;:0.9755970835685730,&#34;b&#34;:0.91348034143447876,&#34;a&#34;:1.0},&#34;position&#34;:0.0},{&#34;color&#34;:{&#34;r&#34;:0.96728885173797607,&#34;g&#34;:0.88122928142547607,&#34;b&#34;:0.67552053928375244,&#34;a&#34;:1.0},&#34;position&#34;:0.22115384042263031},{&#34;color&#34;:{&#34;r&#34;:0.95085263252258301,&#34;g&#34;:0.75967276096343994,&#34;b&#34;:0.32378417253494263,&#34;a&#34;:1.0},&#34;position&#34;:0.46634614467620850},{&#34;color&#34;:{&#34;r&#34;:0.99911731481552124,&#34;g&#34;:0.77958428859710693,&#34;b&#34;:0.27905035018920898,&#34;a&#34;:1.0},&#34;position&#34;:0.81250}],&#34;transform&#34;:{&#34;m00&#34;:-5.6368073288171321e-15,&#34;m01&#34;:-34.344131469726562,&#34;m02&#34;:384.44152832031250,&#34;m10&#34;:43.203544616699219,&#34;m11&#34;:-2.5224209182429964e-14,&#34;m12&#34;:52.397731781005859},&#34;opacity&#34;:1.0,&#34;blendMode&#34;:&#34;NORMAL&#34;,&#34;visible&#34;:true}"/>
<defs>
<filter id="filter0_d_624_11168" x="0" y="0" width="440" height="235.73" filterUnits="userSpaceOnUse" color-interpolation-filters="sRGB">
<feFlood flood-opacity="0" result="BackgroundImageFix"/>
<feColorMatrix in="SourceAlpha" type="matrix" values="0 0 0 0 0 0 0 0 0 0 0 0 0 0 0 0 0 0 127 0" result="hardAlpha"/>
<feOffset dy="4"/>
<feGaussianBlur stdDeviation="10"/>
<feComposite in2="hardAlpha" operator="out"/>
<feColorMatrix type="matrix" values="0 0 0 0 0 0 0 0 0 0 0 0 0 0 0 0 0 0 0.2 0"/>
<feBlend mode="normal" in2="BackgroundImageFix" result="effect1_dropShadow_624_11168"/>
<feBlend mode="normal" in="SourceGraphic" in2="effect1_dropShadow_624_11168" result="shape"/>
</filter>
<filter id="filter1_i_624_11168" x="20" y="16" width="400" height="200.13" filterUnits="userSpaceOnUse" color-interpolation-filters="sRGB">
<feFlood flood-opacity="0" result="BackgroundImageFix"/>
<feBlend mode="normal" in="SourceGraphic" in2="BackgroundImageFix" result="shape"/>
<feColorMatrix in="SourceAlpha" type="matrix" values="0 0 0 0 0 0 0 0 0 0 0 0 0 0 0 0 0 0 127 0" result="hardAlpha"/>
<feOffset dy="11"/>
<feGaussianBlur stdDeviation="2.2"/>
<feComposite in2="hardAlpha" operator="arithmetic" k2="-1" k3="1"/>
<feColorMatrix type="matrix" values="0 0 0 0 0.32681 0 0 0 0 0.236646 0 0 0 0 0.110414 0 0 0 0.25 0"/>
<feBlend mode="normal" in2="shape" result="effect1_innerShadow_624_11168"/>
</filter>
<clipPath id="paint4_diamond_624_11168_clip_path"><path fill-rule="evenodd" clip-rule="evenodd" d="M367.092 46.7401V46.001C367.12 46.0254 367.146 46.0612 367.169 46.1081C367.192 46.0606 367.219 46.0244 367.247 46V46.751C367.249 46.8507 367.249 46.9549 367.247 47.057V47.3891C367.258 47.7822 367.304 48.2945 367.358 48.6592C367.437 49.1204 367.539 49.8292 367.595 50.2344C367.832 51.8771 368.158 53.8242 368.496 55.6582C368.699 56.772 368.813 57.3125 369.185 58.9775C369.211 59.1189 369.244 59.2824 369.276 59.4371L369.276 59.4372C369.312 59.6145 369.346 59.7804 369.364 59.8887C369.398 60.0909 369.466 60.2823 369.523 60.3164C369.579 60.3505 369.624 60.4967 369.624 60.6426C369.624 60.7888 369.669 61.0256 369.726 61.1719C369.782 61.3183 369.895 61.6556 369.962 61.9365C370.154 62.6001 370.74 64.4107 370.864 64.6934C370.921 64.8172 371.056 65.1437 371.157 65.4248C371.262 65.6854 371.589 66.361 371.897 66.9956L371.97 67.1465C372.77 68.7327 373.672 69.7234 374.89 70.3535C375.995 70.9161 377.8 71.5346 379.266 71.8496C379.581 71.9059 380.043 72.0077 380.314 72.0752C381.486 72.3339 382.355 72.5025 383.81 72.75C383.938 72.7728 384.106 72.8011 384.285 72.8311L384.285 72.8313C384.549 72.8755 384.835 72.9237 385.05 72.9639C385.873 73.1101 386.933 73.2678 387.982 73.4141C388.421 73.4703 389.188 73.5824 389.673 73.6611C390.147 73.7286 390.936 73.7847 391.421 73.7734C392.133 73.754 392.683 73.8615 392.709 74C392.683 74.1385 392.133 74.246 391.421 74.2266C390.936 74.2153 390.147 74.2714 389.673 74.3389C389.188 74.4176 388.421 74.5297 387.982 74.5859C386.933 74.7322 385.873 74.8899 385.05 75.0361C384.835 75.0763 384.549 75.1245 384.285 75.1687L384.285 75.1688C384.106 75.1989 383.938 75.2272 383.81 75.25C382.355 75.4975 381.486 75.666 380.314 75.9248C380.043 75.9923 379.581 76.0941 379.266 76.1504C377.8 76.4654 375.995 77.0839 374.89 77.6465C373.672 78.2766 372.77 79.2673 371.97 80.8535L371.897 81.0044C371.589 81.6389 371.262 82.3146 371.157 82.5752C371.056 82.8563 370.921 83.1828 370.864 83.3066C370.74 83.5893 370.154 85.3998 369.962 86.0635C369.894 86.3444 369.782 86.6817 369.726 86.8281C369.669 86.9744 369.624 87.2112 369.624 87.3574C369.624 87.5033 369.579 87.6495 369.523 87.6836C369.466 87.7177 369.398 87.9091 369.364 88.1113C369.346 88.2196 369.312 88.3855 369.276 88.5629C369.244 88.7176 369.211 88.881 369.185 89.0225C368.813 90.6875 368.699 91.228 368.496 92.3418C368.158 94.1758 367.832 96.1229 367.595 97.7656C367.539 98.1707 367.437 98.8796 367.358 99.3408C367.304 99.7053 367.258 100.217 367.247 100.61V100.944C367.249 101.045 367.249 101.149 367.247 101.248V101.999C367.219 101.975 367.192 101.939 367.169 101.892C367.146 101.939 367.12 101.975 367.092 101.999V101.259C367.09 101.156 367.09 101.049 367.092 100.943V100.61C367.081 100.217 367.034 99.7052 366.981 99.3407C366.902 98.8796 366.8 98.1707 366.744 97.7655C366.507 96.1228 366.181 94.1757 365.842 92.3417C365.639 91.2279 365.526 90.6874 365.154 89.0224C365.128 88.881 365.094 88.7176 365.062 88.5629L365.062 88.5627C365.026 88.3854 364.992 88.2195 364.974 88.1112C364.94 87.909 364.872 87.7177 364.816 87.6835C364.76 87.6494 364.714 87.5032 364.714 87.3573C364.714 87.2111 364.669 86.9743 364.613 86.828C364.556 86.6817 364.444 86.3443 364.376 86.0634C364.185 85.3998 363.599 83.5893 363.474 83.3065C363.418 83.1827 363.283 82.8562 363.181 82.5751C363.077 82.3145 362.749 81.6388 362.442 81.0043L362.442 81.0042L362.369 80.8534C361.568 79.2672 360.666 78.2765 359.449 77.6464C358.344 77.0838 356.538 76.4653 355.073 76.1503C354.757 76.094 354.295 75.9922 354.025 75.9247C352.852 75.666 351.983 75.4974 350.529 75.2499C350.401 75.2271 350.233 75.1988 350.054 75.1687L350.053 75.1686L350.053 75.1686C349.79 75.1243 349.503 75.0762 349.289 75.036C348.466 74.8898 347.405 74.7321 346.357 74.5858C345.917 74.5296 345.15 74.4175 344.666 74.3388C344.192 74.2713 343.402 74.2142 342.917 74.2255C342.206 74.2449 341.656 74.1382 341.629 74H341.629L341.629 73.9999L341.629 73.9999H341.629C341.656 73.8614 342.206 73.754 342.917 73.7734C343.402 73.7847 344.192 73.7286 344.666 73.6611C345.15 73.5824 345.917 73.4703 346.357 73.4141C347.405 73.2678 348.466 73.1101 349.289 72.9639C349.503 72.9237 349.79 72.8755 350.053 72.8313L350.054 72.8312C350.233 72.8011 350.401 72.7728 350.529 72.75C351.983 72.5025 352.852 72.3339 354.025 72.0752C354.295 72.0077 354.757 71.9059 355.073 71.8496C356.538 71.5346 358.344 70.9161 359.449 70.3535C360.666 69.7234 361.568 68.7327 362.369 67.1465L362.442 66.9958L362.442 66.9958C362.749 66.3612 363.077 65.6854 363.181 65.4248C363.283 65.1437 363.418 64.8172 363.474 64.6934C363.599 64.4106 364.185 62.6001 364.376 61.9365C364.444 61.6556 364.556 61.3183 364.613 61.1719C364.669 61.0256 364.714 60.7888 364.714 60.6426C364.714 60.4967 364.76 60.3505 364.816 60.3164C364.872 60.2822 364.94 60.0909 364.974 59.8887C364.992 59.7805 365.026 59.6146 365.062 59.4373L365.062 59.4371L365.062 59.437C365.094 59.2823 365.128 59.1189 365.154 58.9775C365.526 57.3125 365.639 56.772 365.842 55.6582C366.181 53.8242 366.507 51.8771 366.744 50.2344C366.8 49.8292 366.902 49.1204 366.981 48.6592C367.034 48.2945 367.081 47.7822 367.092 47.3891V47.0572C367.09 46.9513 367.09 46.8431 367.092 46.7401Z"/></clipPath><linearGradient id="paint0_linear_624_11168" x1="220" y1="16" x2="220" y2="286" gradientUnits="userSpaceOnUse">
<stop stop-color="#331E0E"/>
<stop offset="0.519231" stop-color="#191009"/>
<stop offset="1" stop-color="#2E2107"/>
</linearGradient>
<linearGradient id="paint1_linear_624_11168" x1="117" y1="81.5874" x2="117" y2="207" gradientUnits="userSpaceOnUse">
<stop stop-color="#F5B272"/>
<stop offset="0.480769" stop-color="#F09658"/>
<stop offset="1" stop-color="#F0945A"/>
</linearGradient>
<linearGradient id="paint2_linear_624_11168" x1="318" y1="81.5874" x2="318" y2="207" gradientUnits="userSpaceOnUse">
<stop stop-color="#F5B272"/>
<stop offset="0.480769" stop-color="#F09658"/>
<stop offset="1" stop-color="#F0945A"/>
</linearGradient>
<linearGradient id="paint3_linear_624_11168" x1="77" y1="24.5" x2="316.5" y2="308.5" gradientUnits="userSpaceOnUse">
<stop/>
<stop offset="0.293269"/>
<stop offset="0.509615" stop-color="#181204"/>
<stop offset="0.605769" stop-color="#6D4121"/>
<stop offset="0.711538" stop-color="#1D1505"/>
<stop offset="0.817308" stop-color="#130F06"/>
<stop offset="0.923694"/>
</linearGradient>
<linearGradient id="paint4_diamond_624_11168" x1="0" y1="0" x2="500" y2="500" gradientUnits="userSpaceOnUse">
<stop stop-color="#FFF9E9"/>
<stop offset="0.221154" stop-color="#F7E1AC"/>
<stop offset="0.466346" stop-color="#F2C253"/>
<stop offset="0.8125" stop-color="#FFC747"/>
</linearGradient>
</defs>
</svg>
